<svg width="26" height="29" viewBox="0 0 26 29" fill="none" xmlns="http://www.w3.org/2000/svg">
<path d="M0.581152 1.09882C0.265551 1.43299 0.0795898 1.95152 0.0795898 2.62376V26.6273C0.0795898 27.2995 0.265551 27.8181 0.581152 28.1522L0.661267 28.2305L14.083 14.7843V14.6258V14.4672L0.661267 1.02051L0.581152 1.09882Z" fill="#5BC9F4"/>
<path d="M18.557 19.268L14.0833 14.7842V14.6256V14.467L18.5585 9.98364L18.6595 10.041L23.9601 13.0583C25.474 13.9203 25.474 15.3304 23.9601 16.1924L18.659 19.2096L18.557 19.268Z" fill="url(#paint0_linear)"/>
<path d="M18.6594 19.2098L14.0837 14.6252L0.581299 28.1527C1.08043 28.6819 1.9044 28.7476 2.83275 28.2188L18.6594 19.2098Z" fill="url(#paint1_linear)"/>
<path d="M18.6594 10.041L2.83275 1.03249C1.9044 0.50423 1.08043 0.56941 0.581299 1.09864L14.0832 14.6256L18.6594 10.041Z" fill="url(#paint2_linear)"/>
<defs>
<linearGradient id="paint0_linear" x1="22.976" y1="14.6259" x2="-3.23862" y2="14.6259" gradientUnits="userSpaceOnUse">
<stop stop-color="#FEE000"/>
<stop offset="0.1941" stop-color="#FCCF0B"/>
<stop offset="0.5469" stop-color="#FAB318"/>
<stop offset="0.8279" stop-color="#F9A21B"/>
<stop offset="1" stop-color="#F99B1C"/>
</linearGradient>
<linearGradient id="paint1_linear" x1="16.1729" y1="17.1166" x2="-8.52798" y2="41.7726" gradientUnits="userSpaceOnUse">
<stop stop-color="#EF4547"/>
<stop offset="1" stop-color="#C6186D"/>
</linearGradient>
<linearGradient id="paint2_linear" x1="-8.59298" y1="-12.6765" x2="11.5746" y2="7.45445" gradientUnits="userSpaceOnUse">
<stop stop-color="#279E6F"/>
<stop offset="0.3168" stop-color="#4DAB6D"/>
<stop offset="0.7398" stop-color="#6ABA6A"/>
<stop offset="1" stop-color="#74C169"/>
</linearGradient>
</defs>
</svg>
