<svg width="30" height="32" viewBox="0 0 30 32" fill="none" xmlns="http://www.w3.org/2000/svg">
<path d="M29.1914 15.794C30.023 23.938 24.4177 29.9755 18.2804 31.5401C8.87554 33.9363 -0.288293 26.658 0.00694677 16.9365C0.192363 10.8562 3.94062 5.67456 9.67426 3.57508C9.98518 3.46098 10.2947 3.34545 10.6698 3.2071C11.2817 0.206214 13.6479 -0.40138 16.0084 0.219051C17.6429 0.64836 19.0634 1.50841 20.3271 2.60664C21.9645 4.02864 23.7787 5.14684 25.6757 6.19658C27.8436 7.39465 29.4567 9.21173 29.1444 11.8917C28.9903 13.2281 29.0588 14.4847 29.1914 15.794ZM11.6268 2.87763C11.9592 2.80061 12.2786 2.7293 12.504 2.67795C12.775 3.59648 12.9076 4.46508 13.2756 5.22243C13.9731 6.65442 15.1298 7.66707 16.6644 8.14202C17.5245 8.40731 17.9966 8.96356 18.1991 9.7637C18.3703 10.4412 18.4273 11.1443 18.5371 11.8375C18.6869 12.7988 18.6826 13.8272 19.6996 14.6031C20.0133 14.0654 20.29 13.5719 20.5881 13.0926C20.9262 12.5478 21.3469 12.0301 22.0501 12.1085C22.8017 12.1955 23.0085 12.8487 23.0798 13.482C23.1711 14.3021 23.1811 15.1322 23.2296 15.958C23.2738 16.6911 23.3337 17.42 24.0383 18.1174C24.1253 17.6696 24.2237 17.37 24.2323 17.0677C24.2651 16.1149 24.2537 15.1607 24.2865 14.2094C24.2993 13.7587 24.3449 13.3023 24.4234 12.8587C24.5204 12.3267 24.8456 11.8646 25.3833 11.8732C25.7769 11.8803 26.1991 12.167 26.54 12.4166C26.7896 12.6006 26.9322 12.9286 27.1219 13.1939C27.7808 13.0741 28.0975 12.6933 28.2073 12.1071C28.367 11.2699 28.3186 10.4597 27.9035 9.69239C27.129 8.26896 26.0864 7.1422 24.5532 6.50608C22.893 5.81434 21.4667 4.76317 20.1032 3.59933C19.2588 2.87906 18.336 2.22582 17.3747 1.66815C16.3678 1.08337 15.251 0.751052 14.0515 0.819513C12.7764 0.89368 12.0262 1.51268 11.6268 2.87763ZM24.78 20.9172C24.9097 20.4808 25.0395 20.0957 25.138 19.702C25.1864 19.5166 25.1793 19.3183 25.1993 19.1001H23.1212V20.9172H24.78ZM23.0955 21.5861V23.6414C23.184 23.6742 23.2724 23.7084 23.3608 23.7412C23.7488 23.058 24.1367 22.3763 24.6259 21.5105C23.9641 21.5448 23.5462 21.5647 23.0955 21.5861ZM22.0886 13.298C21.9502 13.2723 21.8119 13.2452 21.675 13.2196C21.2884 13.8785 20.9048 14.5375 20.4883 15.2506H22.2911C22.2169 14.5375 22.1513 13.917 22.0886 13.298ZM16.8113 15.232H18.734C17.931 14.5332 18.289 13.1597 16.8113 13.2581V15.232ZM17.4446 12.4066C17.8083 11.7947 17.3933 10.1303 16.7614 9.55404V12.5835C17.0923 12.505 17.3776 12.5207 17.4446 12.4066ZM27.8122 14.0753C26.6256 14.5617 26.2804 13.3779 25.4717 12.7446C25.7598 13.9013 26.0037 14.8826 26.2519 15.8767C25.8126 16.0108 25.5131 16.1007 25.2221 16.1905C25.185 16.8737 25.1494 17.4841 25.1166 18.1117C25.5202 18.193 25.8639 18.2615 26.1934 18.3285C26.028 24.1948 20.4797 28.9229 16.0982 28.8587V18.2543H22.7062C22.5236 17.4685 22.3653 16.7938 22.1784 15.9908H15.9912V9.00777C14.9857 8.31745 14.1628 7.75408 13.1415 7.05235V15.968H3.0007C3.11338 14.1424 3.75806 12.5877 4.67515 11.1429C6.52503 8.23188 9.24352 6.54602 12.6081 5.79294C12.3599 5.10262 12.1546 4.52498 11.9506 3.9559C6.6477 4.77316 2.0508 9.46133 1.11089 14.9639C0.112491 20.8031 2.93224 26.6223 8.11961 29.4321C13.2385 32.2048 19.6682 31.3661 23.9499 27.4467C27.9591 23.774 29.2328 17.7723 27.8122 14.0753ZM10.5871 15.2463H12.3628V13.2966H10.5871V15.2463ZM12.4184 8.48575V6.78421C11.7367 6.99957 11.1604 7.18356 10.5643 7.37326V8.48575H12.4184ZM12.4255 9.17322H10.6085V12.4622H12.4255V9.17322ZM9.82259 12.5007V9.08622C9.18219 9.08622 8.64448 9.0634 8.11248 9.09192C7.4949 9.12758 6.85023 9.64104 6.81029 10.1973C6.75609 10.9603 6.79745 11.7305 6.79745 12.5007H9.82259ZM6.85308 15.2748H9.79692V13.3223H6.85308V15.2748ZM9.84684 7.65851C9.35334 7.97943 9.03671 8.18481 8.60455 8.46721C9.8012 8.56563 9.80119 8.56563 9.84684 7.65851ZM6.13424 12.4808V10.9204C5.5138 11.3469 5.31127 11.876 5.01175 12.4808H6.13424ZM4.58672 13.2595C4.39275 13.9156 4.20448 14.556 3.98911 15.282H6.10571V13.2595H4.58672ZM22.4466 21.6004H19.3187V24.1677H22.4466V21.6004ZM20.5867 24.9307C20.156 24.9407 19.7252 24.9707 19.3159 24.9935V26.9404C20.6338 26.5239 21.5095 25.8635 21.9645 24.9279C21.481 24.9279 21.0331 24.9193 20.5867 24.9307ZM22.448 19.0944H19.3016V20.8944H22.448V19.0944ZM16.8171 28.0172C17.4361 27.8104 17.9624 27.6321 18.4573 27.4681V25.0149H16.8171V28.0172ZM18.4416 21.6261H16.7928V24.1876H18.4416V21.6261ZM18.4701 19.0901H16.8299V20.9101H18.4701V19.0901Z" fill="#0088CF"/>
</svg>
