<svg width="18" height="19" viewBox="0 0 18 19" fill="none" xmlns="http://www.w3.org/2000/svg">
<path d="M8.75 5.00781C9.53125 5.00781 10.2734 5.24219 10.9766 5.63281C11.6797 6.02344 12.2266 6.57031 12.6172 7.27344C13.0078 7.97656 13.2422 8.71875 13.2422 9.5C13.2422 10.3203 13.0078 11.0625 12.6172 11.7656C12.2266 12.4688 11.6797 13.0156 10.9766 13.4062C10.2734 13.7969 9.53125 13.9922 8.75 13.9922C7.92969 13.9922 7.1875 13.7969 6.48438 13.4062C5.78125 13.0156 5.23438 12.4688 4.84375 11.7656C4.45312 11.0625 4.25781 10.3203 4.25781 9.5C4.25781 8.71875 4.45312 7.97656 4.84375 7.27344C5.23438 6.57031 5.78125 6.02344 6.48438 5.63281C7.1875 5.24219 7.92969 5.00781 8.75 5.00781ZM8.75 12.4297C9.53125 12.4297 10.2344 12.1562 10.8203 11.5703C11.3672 11.0234 11.6797 10.3203 11.6797 9.5C11.6797 8.71875 11.3672 8.01562 10.8203 7.42969C10.2344 6.88281 9.53125 6.57031 8.75 6.57031C7.92969 6.57031 7.22656 6.88281 6.67969 7.42969C6.09375 8.01562 5.82031 8.71875 5.82031 9.5C5.82031 10.3203 6.09375 11.0234 6.67969 11.5703C7.22656 12.1562 7.92969 12.4297 8.75 12.4297ZM14.4922 4.8125C14.4922 4.53906 14.375 4.30469 14.1797 4.07031C13.9453 3.875 13.7109 3.75781 13.4375 3.75781C13.125 3.75781 12.8906 3.875 12.6953 4.07031C12.4609 4.30469 12.3828 4.53906 12.3828 4.8125C12.3828 5.125 12.4609 5.35938 12.6953 5.55469C12.8906 5.78906 13.125 5.86719 13.4375 5.86719C13.7109 5.86719 13.9453 5.78906 14.1406 5.55469C14.3359 5.35938 14.4531 5.125 14.4922 4.8125ZM17.4609 5.86719C17.4609 6.60938 17.5 7.82031 17.5 9.5C17.5 11.2188 17.4609 12.4297 17.4219 13.1719C17.3828 13.9141 17.2656 14.5391 17.1094 15.0859C16.875 15.75 16.4844 16.3359 16.0156 16.8047C15.5469 17.2734 14.9609 17.625 14.3359 17.8594C13.7891 18.0547 13.125 18.1719 12.3828 18.2109C11.6406 18.25 10.4297 18.25 8.75 18.25C7.03125 18.25 5.82031 18.25 5.07812 18.2109C4.33594 18.1719 3.71094 18.0547 3.16406 17.8203C2.5 17.625 1.91406 17.2734 1.44531 16.8047C0.976562 16.3359 0.625 15.75 0.390625 15.0859C0.195312 14.5391 0.078125 13.9141 0.0390625 13.1719C0 12.4297 0 11.2188 0 9.5C0 7.82031 0 6.60938 0.0390625 5.86719C0.078125 5.125 0.195312 4.46094 0.390625 3.91406C0.625 3.28906 0.976562 2.70312 1.44531 2.23438C1.91406 1.76562 2.5 1.375 3.16406 1.14062C3.71094 0.984375 4.33594 0.867188 5.07812 0.828125C5.82031 0.789062 7.03125 0.75 8.75 0.75C10.4297 0.75 11.6406 0.789062 12.3828 0.828125C13.125 0.867188 13.7891 0.984375 14.3359 1.14062C14.9609 1.375 15.5469 1.76562 16.0156 2.23438C16.4844 2.70312 16.875 3.28906 17.1094 3.91406C17.2656 4.46094 17.3828 5.125 17.4609 5.86719ZM15.5859 14.6562C15.7422 14.2266 15.8203 13.5234 15.8984 12.5469C15.8984 12 15.9375 11.1797 15.9375 10.125V8.875C15.9375 7.82031 15.8984 7 15.8984 6.45312C15.8203 5.47656 15.7422 4.77344 15.5859 4.34375C15.2734 3.5625 14.6875 2.97656 13.9062 2.66406C13.4766 2.50781 12.7734 2.42969 11.7969 2.35156C11.2109 2.35156 10.3906 2.3125 9.375 2.3125H8.125C7.07031 2.3125 6.25 2.35156 5.70312 2.35156C4.72656 2.42969 4.02344 2.50781 3.59375 2.66406C2.77344 2.97656 2.22656 3.5625 1.91406 4.34375C1.75781 4.77344 1.64062 5.47656 1.60156 6.45312C1.5625 7.03906 1.5625 7.85938 1.5625 8.875V10.125C1.5625 11.1797 1.5625 12 1.60156 12.5469C1.64062 13.5234 1.75781 14.2266 1.91406 14.6562C2.22656 15.4766 2.8125 16.0234 3.59375 16.3359C4.02344 16.4922 4.72656 16.6094 5.70312 16.6484C6.25 16.6875 7.07031 16.6875 8.125 16.6875H9.375C10.4297 16.6875 11.25 16.6875 11.7969 16.6484C12.7734 16.6094 13.4766 16.4922 13.9062 16.3359C14.6875 16.0234 15.2734 15.4375 15.5859 14.6562Z" fill="#4F4F4F"/>
</svg>
