<svg width="23" height="29" viewBox="0 0 23 29" fill="none" xmlns="http://www.w3.org/2000/svg">
<path d="M18.9703 15.7393C18.9378 12.2252 21.8433 10.5143 21.9758 10.4351C20.3316 8.03038 17.7803 7.70318 16.8845 7.67693C14.7438 7.45182 12.6657 8.9624 11.5772 8.9624C10.4649 8.9624 8.78139 7.69978 6.97315 7.73624C4.64273 7.77416 2.46276 9.12478 1.26843 11.2227C-1.19788 15.5011 0.641419 21.7885 3.00387 25.2486C4.18704 26.9415 5.5682 28.8333 7.37644 28.7657C9.14488 28.6918 9.80489 27.6368 11.9407 27.6368C14.0571 27.6368 14.6778 28.7657 16.522 28.7234C18.4205 28.6923 19.6148 27.0218 20.7552 25.3123C22.1233 23.3715 22.6712 21.4598 22.6931 21.3611C22.6489 21.346 19.0062 19.9541 18.9703 15.7393Z" fill="white"/>
<path d="M15.4851 5.40216C16.4363 4.21052 17.0895 2.58763 16.9056 0.942383C15.5293 1.00364 13.8079 1.89579 12.8169 3.06264C11.939 4.08995 11.1533 5.77506 11.3566 7.3576C12.9057 7.47331 14.4922 6.57533 15.4851 5.40216Z" fill="white"/>
</svg>
