<svg width="14" height="13" viewBox="0 0 14 13" fill="none" xmlns="http://www.w3.org/2000/svg">
<path d="M11.8125 8C12.0703 8 12.3047 7.83594 12.375 7.57812L13.4766 2.70312C13.5469 2.35156 13.2891 2 12.9141 2H3.72656L3.51562 0.96875C3.44531 0.710938 3.21094 0.5 2.95312 0.5H0.5625C0.234375 0.5 0 0.757812 0 1.0625V1.4375C0 1.76562 0.234375 2 0.5625 2H2.17969L3.84375 10.0625C3.42188 10.2969 3.14062 10.7422 3.1875 11.2812C3.21094 11.9375 3.75 12.4766 4.42969 12.5C5.17969 12.5469 5.8125 11.9375 5.8125 11.1875C5.8125 10.8359 5.64844 10.5078 5.41406 10.25H10.3125C10.0781 10.5078 9.91406 10.8594 9.9375 11.2344C9.9375 11.9375 10.5234 12.5 11.2266 12.5C11.9531 12.5234 12.5625 11.9375 12.5625 11.1875C12.5625 10.6719 12.2578 10.2266 11.8125 10.0156L11.9297 9.45312C12.0234 9.10156 11.7422 8.75 11.3906 8.75H5.10938L4.94531 8H11.8125ZM9.5625 4.4375C9.75 4.4375 9.9375 4.625 9.9375 4.8125V5.1875C9.9375 5.39844 9.75 5.5625 9.5625 5.5625H8.4375V6.5C8.4375 6.71094 8.25 6.875 8.0625 6.875H7.6875C7.47656 6.875 7.3125 6.71094 7.3125 6.5V5.5625H6.1875C5.97656 5.5625 5.8125 5.39844 5.8125 5.1875V4.8125C5.8125 4.625 5.97656 4.4375 6.1875 4.4375H7.3125V3.5C7.3125 3.3125 7.47656 3.125 7.6875 3.125H8.0625C8.25 3.125 8.4375 3.3125 8.4375 3.5V4.4375H9.5625Z" fill="white"/>
</svg>
