<svg width="13" height="13" viewBox="0 0 13 13" fill="none" xmlns="http://www.w3.org/2000/svg">
<path d="M9.13281 6.25L12.6484 2.73438C13.1055 2.3125 13.1055 1.60938 12.6484 1.1875L11.875 0.414062C11.4531 -0.0429688 10.75 -0.0429688 10.3281 0.414062L6.8125 3.92969L3.26172 0.414062C2.83984 -0.0429688 2.13672 -0.0429688 1.71484 0.414062L0.941406 1.1875C0.484375 1.60938 0.484375 2.3125 0.941406 2.73438L4.45703 6.25L0.941406 9.80078C0.484375 10.2227 0.484375 10.9258 0.941406 11.3477L1.71484 12.1211C2.13672 12.5781 2.83984 12.5781 3.26172 12.1211L6.8125 8.60547L10.3281 12.1211C10.75 12.5781 11.4531 12.5781 11.875 12.1211L12.6484 11.3477C13.1055 10.9258 13.1055 10.2227 12.6484 9.80078L9.13281 6.25Z" fill="white"/>
</svg>
