<svg width="18" height="21" viewBox="0 0 18 21" fill="none" xmlns="http://www.w3.org/2000/svg">
<path d="M13.75 5.5C13.75 2.76562 11.4844 0.5 8.75 0.5C5.97656 0.5 3.75 2.76562 3.75 5.5H0V17.375C0 19.1328 1.36719 20.5 3.125 20.5H14.375C16.0938 20.5 17.5 19.1328 17.5 17.375V5.5H13.75ZM8.75 2.375C10.4688 2.375 11.875 3.78125 11.875 5.5H5.625C5.625 3.78125 6.99219 2.375 8.75 2.375ZM15.625 17.375C15.625 18.0781 15.0391 18.625 14.375 18.625H3.125C2.42188 18.625 1.875 18.0781 1.875 17.375V7.375H3.75V8.9375C3.75 9.48438 4.14062 9.875 4.6875 9.875C5.19531 9.875 5.625 9.48438 5.625 8.9375V7.375H11.875V8.9375C11.875 9.48438 12.2656 9.875 12.8125 9.875C13.3203 9.875 13.75 9.48438 13.75 8.9375V7.375H15.625V17.375Z" fill="#4F4F4F"/>
</svg>
